<?xml version="1.0" encoding="UTF-8"?>
<!DOCTYPE svg PUBLIC "-//W3C//DTD SVG 1.1//EN" "http://www.w3.org/Graphics/SVG/1.1/DTD/svg11.dtd">
<!-- Creator: CorelDRAW -->
<svg xmlns="http://www.w3.org/2000/svg" xml:space="preserve" width="2048px" height="2048px" style="shape-rendering:geometricPrecision; text-rendering:geometricPrecision; image-rendering:optimizeQuality; fill-rule:evenodd; clip-rule:evenodd"
viewBox="0 0 2048 2048"
 xmlns:xlink="http://www.w3.org/1999/xlink">
 <defs>
  <style type="text/css">
   <![CDATA[
    .fil2 {fill:none}
    .fil0 {fill:#EC407A}
    .fil1 {fill:#FFFFFE}
   ]]>
  </style>
 </defs>
 <g id="Layer_x0020_1">
  <metadata id="CorelCorpID_0Corel-Layer"/>
  <rect class="fil0" width="2048" height="2048" rx="256.001" ry="256.001"/>
  <path class="fil1" d="M1337.56 828.629c256.26,0 464,207.74 464,464 0,256.26 -207.74,464 -464,464 -256.26,0 -464,-207.74 -464,-464 0,-256.26 207.74,-464 464,-464zm-9.96024 379.413c25.5673,0 48.8032,10.0016 66.0083,26.3008l175.971 -127.136c14.2902,-10.285 34.2154,-7.03938 44.5004,7.25079 10.285,14.2902 7.03938,34.2154 -7.25079,44.5004l-183.991 132.93c0.50315,3.9815 0.762993,8.03859 0.762993,12.1559 0,26.5063 -10.748,50.5075 -28.1209,67.8804 -17.3728,17.3728 -41.374,28.1209 -67.8804,28.1209 -26.5051,0 -50.5075,-10.748 -67.8804,-28.1209 -17.3728,-17.3728 -28.1209,-41.374 -28.1209,-67.8804 0,-2.29134 0.0814961,-4.56378 0.239764,-6.81497l-187.067 -135.152c-14.2902,-10.285 -17.5358,-30.2103 -7.25079,-44.5004 10.285,-14.2902 30.2103,-17.5358 44.5004,-7.25079l176.241 127.33c0.480709,-0.501969 0.966142,-1.00039 1.45748,-1.49173 17.3728,-17.3728 41.3752,-28.1209 67.8804,-28.1209zm22.6299 73.3713c-5.78741,-5.78741 -13.7894,-9.36969 -22.6299,-9.36969 -8.83938,0 -16.8425,3.58229 -22.6299,9.36969 -5.78741,5.78741 -9.36969,13.7906 -9.36969,22.6299 0,8.84056 3.58229,16.8425 9.36969,22.6299 5.78741,5.78741 13.7906,9.36969 22.6299,9.36969 8.84056,0 16.8425,-3.58229 22.6299,-9.36969 5.78741,-5.78741 9.36969,-13.7894 9.36969,-22.6299 0,-8.83938 -3.58229,-16.8425 -9.36969,-22.6299z"/>
  <path class="fil1" d="M351.999 287.998l1088 0c44.0327,0 84.0414,17.9917 113.026,46.9748 28.9831,28.9843 46.9748,68.993 46.9748,113.026l0 386.373c-349.452,-200.563 -790.439,52.9252 -790.439,458.257 0,145.799 59.1,277.8 154.65,373.35 10.4539,10.4528 21.3414,20.4697 32.6386,30.0213l-644.852 0c-44.0327,0 -84.0414,-17.9917 -113.026,-46.9748 -28.9831,-28.9843 -46.9748,-68.993 -46.9748,-113.026l0 -1088c0,-44.0327 17.9917,-84.0414 46.9748,-113.026 28.9843,-28.9831 68.993,-46.9748 113.026,-46.9748zm416 63.9993l256.002 0 0 64.0016 -256.002 0 0 -64.0016zm-289.316 576.002l130.159 0 30.6827 0 0 30.7595 0 130.482 0 30.7595 -30.6827 0 -130.159 0 -30.6827 0 0 -30.7595 0 -130.482 0 -30.7595 30.6827 0zm0 320l130.159 0 30.6827 0 0 30.7595 0 130.482 0 30.7595 -30.6827 0 -130.159 0 -30.6827 0 0 -30.7595 0 -130.482 0 -30.7595 30.6827 0z"/>
  <rect class="fil2" x="255.999" y="255.999" width="1536" height="1536"/>
 </g>
</svg>
